<mxfile host="Electron" modified="2023-08-08T06:09:21.735Z" agent="Mozilla/5.0 (Windows NT 10.0; Win64; x64) AppleWebKit/537.36 (KHTML, like Gecko) draw.io/21.6.5 Chrome/114.0.5735.243 Electron/25.3.1 Safari/537.36" etag="VpuW2rigq3RqhTrK1hE1" version="21.6.5" type="device">
  <diagram name="Page-1" id="vF9-OnyA8ZjiF99BeojS">
    <mxGraphModel dx="780" dy="1642" grid="1" gridSize="10" guides="1" tooltips="1" connect="1" arrows="1" fold="1" page="1" pageScale="1" pageWidth="850" pageHeight="1100" math="0" shadow="0">
      <root>
        <mxCell id="0" />
        <mxCell id="1" parent="0" />
        <mxCell id="twKRlQ5eDzptgvFC8e6N-27" value="" style="rounded=1;whiteSpace=wrap;html=1;" parent="1" vertex="1">
          <mxGeometry x="40" y="60" width="170" height="320" as="geometry" />
        </mxCell>
        <mxCell id="twKRlQ5eDzptgvFC8e6N-25" value="" style="rounded=1;whiteSpace=wrap;html=1;" parent="1" vertex="1">
          <mxGeometry x="830" y="110" width="160" height="230" as="geometry" />
        </mxCell>
        <mxCell id="twKRlQ5eDzptgvFC8e6N-5" value="" style="sketch=0;points=[[0,0,0],[0.25,0,0],[0.5,0,0],[0.75,0,0],[1,0,0],[0,1,0],[0.25,1,0],[0.5,1,0],[0.75,1,0],[1,1,0],[0,0.25,0],[0,0.5,0],[0,0.75,0],[1,0.25,0],[1,0.5,0],[1,0.75,0]];outlineConnect=0;fontColor=#232F3E;gradientColor=#4D72F3;gradientDirection=north;fillColor=#3334B9;strokeColor=#ffffff;dashed=0;verticalLabelPosition=bottom;verticalAlign=top;align=center;html=1;fontSize=12;fontStyle=0;aspect=fixed;shape=mxgraph.aws4.resourceIcon;resIcon=mxgraph.aws4.documentdb_with_mongodb_compatibility;" parent="1" vertex="1">
          <mxGeometry x="137" y="99" width="54.75" height="54.75" as="geometry" />
        </mxCell>
        <mxCell id="twKRlQ5eDzptgvFC8e6N-6" value="" style="sketch=0;outlineConnect=0;fontColor=#232F3E;gradientColor=none;fillColor=#4D27AA;strokeColor=none;dashed=0;verticalLabelPosition=bottom;verticalAlign=top;align=center;html=1;fontSize=12;fontStyle=0;aspect=fixed;pointerEvents=1;shape=mxgraph.aws4.search_documents;" parent="1" vertex="1">
          <mxGeometry x="137" y="181" width="51.22" height="58.75" as="geometry" />
        </mxCell>
        <mxCell id="9NH-2MKHGa8oK9PlYx2v-12" value="" style="edgeStyle=orthogonalEdgeStyle;rounded=0;orthogonalLoop=1;jettySize=auto;html=1;" parent="1" source="twKRlQ5eDzptgvFC8e6N-7" target="9NH-2MKHGa8oK9PlYx2v-2" edge="1">
          <mxGeometry relative="1" as="geometry" />
        </mxCell>
        <mxCell id="twKRlQ5eDzptgvFC8e6N-7" value="" style="outlineConnect=0;dashed=0;verticalLabelPosition=bottom;verticalAlign=top;align=center;html=1;shape=mxgraph.aws3.documents;fillColor=#759C3E;gradientColor=none;" parent="1" vertex="1">
          <mxGeometry x="137" y="283.75" width="55" height="59.25" as="geometry" />
        </mxCell>
        <mxCell id="twKRlQ5eDzptgvFC8e6N-8" value="Transactional Database" style="text;html=1;strokeColor=none;fillColor=none;align=center;verticalAlign=middle;whiteSpace=wrap;rounded=0;" parent="1" vertex="1">
          <mxGeometry x="55" y="100.75" width="60" height="30" as="geometry" />
        </mxCell>
        <mxCell id="twKRlQ5eDzptgvFC8e6N-9" value="HDFS files" style="text;html=1;strokeColor=none;fillColor=none;align=center;verticalAlign=middle;whiteSpace=wrap;rounded=0;" parent="1" vertex="1">
          <mxGeometry x="55" y="194.75" width="60" height="30" as="geometry" />
        </mxCell>
        <mxCell id="twKRlQ5eDzptgvFC8e6N-10" value="Data files" style="text;html=1;strokeColor=none;fillColor=none;align=center;verticalAlign=middle;whiteSpace=wrap;rounded=0;" parent="1" vertex="1">
          <mxGeometry x="55" y="290.75" width="60" height="30" as="geometry" />
        </mxCell>
        <mxCell id="9NH-2MKHGa8oK9PlYx2v-29" value="" style="edgeStyle=orthogonalEdgeStyle;rounded=0;orthogonalLoop=1;jettySize=auto;html=1;entryX=-0.015;entryY=0.605;entryDx=0;entryDy=0;entryPerimeter=0;" parent="1" source="twKRlQ5eDzptgvFC8e6N-11" target="9NH-2MKHGa8oK9PlYx2v-26" edge="1">
          <mxGeometry relative="1" as="geometry" />
        </mxCell>
        <mxCell id="twKRlQ5eDzptgvFC8e6N-11" value="" style="image;aspect=fixed;html=1;points=[];align=center;fontSize=12;image=img/lib/azure2/integration/SQL_Data_Warehouses.svg;" parent="1" vertex="1">
          <mxGeometry x="391" y="174.25" width="86.15" height="87.5" as="geometry" />
        </mxCell>
        <mxCell id="twKRlQ5eDzptgvFC8e6N-12" value="&lt;font color=&quot;#ff0505&quot;&gt;Component 2&lt;/font&gt;&lt;br&gt;Data Lake to rest raw data" style="text;html=1;strokeColor=none;fillColor=none;align=center;verticalAlign=middle;whiteSpace=wrap;rounded=0;" parent="1" vertex="1">
          <mxGeometry x="387.15" y="275.25" width="102.85" height="30" as="geometry" />
        </mxCell>
        <mxCell id="twKRlQ5eDzptgvFC8e6N-16" value="&lt;font color=&quot;#ff0505&quot;&gt;Component 4&lt;/font&gt;&lt;br&gt;Compuing Engine to aggregate data" style="text;html=1;strokeColor=none;fillColor=none;align=center;verticalAlign=middle;whiteSpace=wrap;rounded=0;" parent="1" vertex="1">
          <mxGeometry x="510" y="154.75" width="110" height="30" as="geometry" />
        </mxCell>
        <mxCell id="twKRlQ5eDzptgvFC8e6N-18" value="" style="image;sketch=0;aspect=fixed;html=1;points=[];align=center;fontSize=12;image=img/lib/mscae/Shared_Dashboard.svg;" parent="1" vertex="1">
          <mxGeometry x="842" y="124.75" width="50" height="41" as="geometry" />
        </mxCell>
        <mxCell id="twKRlQ5eDzptgvFC8e6N-19" value="Power BI" style="text;html=1;strokeColor=none;fillColor=none;align=center;verticalAlign=middle;whiteSpace=wrap;rounded=0;" parent="1" vertex="1">
          <mxGeometry x="912" y="124.75" width="60" height="30" as="geometry" />
        </mxCell>
        <mxCell id="twKRlQ5eDzptgvFC8e6N-20" value="" style="shape=image;html=1;verticalAlign=top;verticalLabelPosition=bottom;labelBackgroundColor=#ffffff;imageAspect=0;aspect=fixed;image=https://cdn2.iconfinder.com/data/icons/bitsies/128/BarChart-128.png" parent="1" vertex="1">
          <mxGeometry x="842" y="194.75" width="50" height="50" as="geometry" />
        </mxCell>
        <mxCell id="twKRlQ5eDzptgvFC8e6N-21" value="Tableau" style="text;html=1;strokeColor=none;fillColor=none;align=center;verticalAlign=middle;whiteSpace=wrap;rounded=0;" parent="1" vertex="1">
          <mxGeometry x="912" y="208.75" width="60" height="30" as="geometry" />
        </mxCell>
        <mxCell id="twKRlQ5eDzptgvFC8e6N-22" value="" style="shape=image;html=1;verticalAlign=top;verticalLabelPosition=bottom;labelBackgroundColor=#ffffff;imageAspect=0;aspect=fixed;image=https://cdn0.iconfinder.com/data/icons/web-development-and-studio/512/30_Graph_Analysis_analytic_analytics_chart_data-128.png" parent="1" vertex="1">
          <mxGeometry x="842" y="276.75" width="56" height="56" as="geometry" />
        </mxCell>
        <mxCell id="twKRlQ5eDzptgvFC8e6N-23" value="Jupyter Notebook" style="text;html=1;strokeColor=none;fillColor=none;align=center;verticalAlign=middle;whiteSpace=wrap;rounded=0;" parent="1" vertex="1">
          <mxGeometry x="912" y="292.25" width="60" height="25" as="geometry" />
        </mxCell>
        <mxCell id="twKRlQ5eDzptgvFC8e6N-26" value="&lt;b&gt;DA and Vi&lt;/b&gt;sualization" style="text;html=1;strokeColor=none;fillColor=none;align=center;verticalAlign=middle;whiteSpace=wrap;rounded=0;" parent="1" vertex="1">
          <mxGeometry x="850" y="80" width="118" height="30" as="geometry" />
        </mxCell>
        <mxCell id="9NH-2MKHGa8oK9PlYx2v-1" value="&lt;h1&gt;Data Pipeline&lt;/h1&gt;&lt;p&gt;Data pipeline includes Ingress, transform, engress and serving components.&lt;/p&gt;" style="text;html=1;strokeColor=none;fillColor=none;spacing=5;spacingTop=-20;whiteSpace=wrap;overflow=hidden;rounded=0;" parent="1" vertex="1">
          <mxGeometry x="30" y="-50" width="390" height="80" as="geometry" />
        </mxCell>
        <mxCell id="9NH-2MKHGa8oK9PlYx2v-14" value="" style="edgeStyle=orthogonalEdgeStyle;rounded=0;orthogonalLoop=1;jettySize=auto;html=1;entryX=-0.031;entryY=0.778;entryDx=0;entryDy=0;entryPerimeter=0;" parent="1" source="9NH-2MKHGa8oK9PlYx2v-2" target="twKRlQ5eDzptgvFC8e6N-11" edge="1">
          <mxGeometry relative="1" as="geometry" />
        </mxCell>
        <mxCell id="9NH-2MKHGa8oK9PlYx2v-2" value="&lt;font color=&quot;#ff0505&quot;&gt;Component 1&lt;/font&gt;" style="shape=cylinder3;whiteSpace=wrap;html=1;boundedLbl=1;backgroundOutline=1;size=15;" parent="1" vertex="1">
          <mxGeometry x="270" y="247.75" width="80" height="80" as="geometry" />
        </mxCell>
        <mxCell id="9NH-2MKHGa8oK9PlYx2v-6" value="&lt;font color=&quot;#120000&quot;&gt;Transactional &lt;br&gt;Storage System&lt;/font&gt;" style="text;html=1;align=center;verticalAlign=middle;resizable=0;points=[];autosize=1;strokeColor=none;fillColor=none;" parent="1" vertex="1">
          <mxGeometry x="352.5" y="53" width="110" height="40" as="geometry" />
        </mxCell>
        <mxCell id="9NH-2MKHGa8oK9PlYx2v-8" value="" style="shape=flexArrow;endArrow=classic;html=1;rounded=0;width=13;endSize=9.89;" parent="1" source="twKRlQ5eDzptgvFC8e6N-6" edge="1">
          <mxGeometry width="50" height="50" relative="1" as="geometry">
            <mxPoint x="540" y="240" as="sourcePoint" />
            <mxPoint x="390" y="212" as="targetPoint" />
          </mxGeometry>
        </mxCell>
        <mxCell id="9NH-2MKHGa8oK9PlYx2v-9" value="ETL" style="edgeLabel;html=1;align=center;verticalAlign=middle;resizable=0;points=[];" parent="9NH-2MKHGa8oK9PlYx2v-8" vertex="1" connectable="0">
          <mxGeometry x="-0.0704" y="3" relative="1" as="geometry">
            <mxPoint as="offset" />
          </mxGeometry>
        </mxCell>
        <mxCell id="9NH-2MKHGa8oK9PlYx2v-10" value="&lt;font style=&quot;font-size: 12px;&quot;&gt;Batch ETL&lt;/font&gt;" style="edgeLabel;html=1;align=center;verticalAlign=middle;resizable=0;points=[];" parent="9NH-2MKHGa8oK9PlYx2v-8" vertex="1" connectable="0">
          <mxGeometry x="-0.0481" y="2" relative="1" as="geometry">
            <mxPoint as="offset" />
          </mxGeometry>
        </mxCell>
        <mxCell id="9NH-2MKHGa8oK9PlYx2v-18" value="Transaction Processing" style="text;html=1;align=center;verticalAlign=middle;resizable=0;points=[];autosize=1;strokeColor=none;fillColor=none;" parent="1" vertex="1">
          <mxGeometry x="210" y="99" width="150" height="30" as="geometry" />
        </mxCell>
        <mxCell id="9NH-2MKHGa8oK9PlYx2v-19" value="NoSQL Data" style="text;html=1;strokeColor=none;fillColor=none;align=center;verticalAlign=middle;whiteSpace=wrap;rounded=0;" parent="1" vertex="1">
          <mxGeometry x="170" y="262.25" width="100" height="30" as="geometry" />
        </mxCell>
        <mxCell id="9NH-2MKHGa8oK9PlYx2v-30" value="" style="edgeStyle=orthogonalEdgeStyle;rounded=0;orthogonalLoop=1;jettySize=auto;html=1;" parent="1" target="9NH-2MKHGa8oK9PlYx2v-26" edge="1">
          <mxGeometry relative="1" as="geometry">
            <mxPoint x="605" y="115.79999999999995" as="sourcePoint" />
          </mxGeometry>
        </mxCell>
        <mxCell id="9NH-2MKHGa8oK9PlYx2v-26" value="" style="image;aspect=fixed;html=1;points=[];align=center;fontSize=12;image=img/lib/azure2/integration/SQL_Data_Warehouses.svg;" parent="1" vertex="1">
          <mxGeometry x="650.0000000000001" y="166" width="86.15" height="87.5" as="geometry" />
        </mxCell>
        <mxCell id="9NH-2MKHGa8oK9PlYx2v-27" value="&lt;font color=&quot;#ff0505&quot;&gt;Component 5&lt;/font&gt;&lt;br&gt;Data Warehouse to store aggregated DA data" style="text;html=1;strokeColor=none;fillColor=none;align=center;verticalAlign=middle;whiteSpace=wrap;rounded=0;" parent="1" vertex="1">
          <mxGeometry x="638.08" y="272.75" width="110" height="30" as="geometry" />
        </mxCell>
        <mxCell id="9NH-2MKHGa8oK9PlYx2v-32" value="&lt;b&gt;Serving&lt;/b&gt;" style="shape=flexArrow;endArrow=classic;html=1;rounded=0;exitX=0.983;exitY=0.75;exitDx=0;exitDy=0;exitPerimeter=0;entryX=0.01;entryY=0.53;entryDx=0;entryDy=0;entryPerimeter=0;" parent="1" source="9NH-2MKHGa8oK9PlYx2v-26" target="twKRlQ5eDzptgvFC8e6N-25" edge="1">
          <mxGeometry width="50" height="50" relative="1" as="geometry">
            <mxPoint x="750" y="220" as="sourcePoint" />
            <mxPoint x="830" y="217" as="targetPoint" />
            <Array as="points" />
          </mxGeometry>
        </mxCell>
        <mxCell id="qHmMzKlm6aOfu3a4MvsS-4" value="" style="editableCssRules=.*;html=1;shape=image;verticalLabelPosition=bottom;labelBackgroundColor=#ffffff;verticalAlign=top;aspect=fixed;imageAspect=0;image=data:image/svg+xml,PHN2ZyB4bWxucz0iaHR0cDovL3d3dy53My5vcmcvMjAwMC9zdmciIHhtbG5zOnY9Imh0dHBzOi8vdmVjdGEuaW8vbmFubyIgd2lkdGg9IjIwIiBoZWlnaHQ9IjIwIiB2aWV3Qm94PSIwIDAgMjAgMjAiPiYjeGE7CTxzdHlsZSB0eXBlPSJ0ZXh0L2NzcyI+JiN4YTsJLnN0MHtmaWxsOiM0Mjg1ZjQ7fSYjeGE7CS5zdDF7ZmlsbDojNjY5ZGY2O30mI3hhOwkuc3Qye2ZpbGw6I2FlY2JmYTt9JiN4YTsJPC9zdHlsZT4mI3hhOwk8cGF0aCBjbGFzcz0ic3QyIiBkPSJNNyA3aDZ2Nkg3eiIvPiYjeGE7CTxwYXRoIGNsYXNzPSJzdDEiIGQ9Ik05IDBoMnY0SDl6TTUgMGgydjRINXptOCAwaDJ2NGgtMnoiLz4mI3hhOwk8cGF0aCBjbGFzcz0ic3QwIiBkPSJNOSAxNmgydjRIOXptLTQgMGgydjRINXptOCAwaDJ2NGgtMnptMy01VjloNHYyem0wIDR2LTJoNHYyem0wLThWNWg0djJ6Ii8+JiN4YTsJPHBhdGggY2xhc3M9InN0MSIgZD0iTTAgMTFWOWg0djJ6bTAgNHYtMmg0djJ6bTAtOFY1aDR2MnoiLz4mI3hhOwk8cGF0aCBjbGFzcz0ic3QyIiBkPSJNMyAzdjE0aDE0VjN6bTEyIDEySDVWNWgxMHoiLz4mI3hhOwk8cGF0aCBjbGFzcz0ic3QxIiBkPSJNMTAgMTBsLTMgM2g2eiIvPiYjeGE7CTxwYXRoIGNsYXNzPSJzdDAiIGQ9Ik0xMyA3bC0zIDMgMyAzeiIvPiYjeGE7PC9zdmc+;" parent="1" vertex="1">
          <mxGeometry x="530" y="81.25" width="70" height="70" as="geometry" />
        </mxCell>
        <mxCell id="qHmMzKlm6aOfu3a4MvsS-7" value="" style="edgeStyle=orthogonalEdgeStyle;rounded=0;orthogonalLoop=1;jettySize=auto;html=1;" parent="1" source="twKRlQ5eDzptgvFC8e6N-5" edge="1">
          <mxGeometry relative="1" as="geometry">
            <mxPoint x="364.8499999999999" y="126.375" as="targetPoint" />
            <mxPoint x="192" y="126" as="sourcePoint" />
          </mxGeometry>
        </mxCell>
        <mxCell id="UdKMjlKJKa2XHiYvNApc-1" value="&lt;span style=&quot;color: rgb(0, 0, 0); font-family: Helvetica; font-size: 12px; font-style: normal; font-variant-ligatures: normal; font-variant-caps: normal; font-weight: 400; letter-spacing: normal; orphans: 2; text-indent: 0px; text-transform: none; widows: 2; word-spacing: 0px; -webkit-text-stroke-width: 0px; background-color: rgb(251, 251, 251); text-decoration-thickness: initial; text-decoration-style: initial; text-decoration-color: initial; float: none; display: inline !important;&quot;&gt;Non-transactional Storage System&lt;/span&gt;" style="text;whiteSpace=wrap;html=1;align=center;" vertex="1" parent="1">
          <mxGeometry x="250" y="327.75" width="120" height="40" as="geometry" />
        </mxCell>
        <mxCell id="UdKMjlKJKa2XHiYvNApc-3" value="" style="edgeStyle=orthogonalEdgeStyle;rounded=0;orthogonalLoop=1;jettySize=auto;html=1;" edge="1" parent="1" source="UdKMjlKJKa2XHiYvNApc-2" target="qHmMzKlm6aOfu3a4MvsS-4">
          <mxGeometry relative="1" as="geometry" />
        </mxCell>
        <mxCell id="UdKMjlKJKa2XHiYvNApc-2" value="&lt;font color=&quot;#ff0505&quot;&gt;Component 3&lt;/font&gt;" style="shape=cylinder3;whiteSpace=wrap;html=1;boundedLbl=1;backgroundOutline=1;size=15;" vertex="1" parent="1">
          <mxGeometry x="367" y="91.87" width="83" height="75.13" as="geometry" />
        </mxCell>
      </root>
    </mxGraphModel>
  </diagram>
</mxfile>
